<svg width="31" height="31" viewBox="0 0 31 31" fill="none" xmlns="http://www.w3.org/2000/svg">
<path d="M29.5625 6.91603C28.5075 7.37444 27.3912 7.67645 26.249 7.81251C27.4494 7.10961 28.3521 5.99292 28.7879 4.67188C27.653 5.33551 26.4134 5.80115 25.1223 6.04884C24.5786 5.47903 23.9247 5.02574 23.2004 4.7165C22.476 4.40727 21.6964 4.24855 20.9088 4.25001C17.7201 4.25001 15.1396 6.79298 15.1396 9.92774C15.1374 10.3638 15.1874 10.7985 15.2885 11.2227C13.002 11.1155 10.763 10.5322 8.71483 9.51012C6.66666 8.48805 4.85439 7.04971 3.39395 5.28712C2.88159 6.15086 2.61062 7.13636 2.60938 8.14063C2.60938 10.1094 3.63652 11.8496 5.1875 12.8692C4.26859 12.8473 3.36851 12.6041 2.56367 12.1602V12.2305C2.56367 14.9844 4.55586 17.2754 7.19258 17.7969C6.69675 17.9291 6.1858 17.996 5.67266 17.9961C5.30854 17.9967 4.94526 17.9614 4.58809 17.8906C5.32109 20.1465 7.45449 21.7871 9.98164 21.834C7.92815 23.4166 5.407 24.2719 2.81445 24.2656C2.35427 24.265 1.89451 24.2376 1.4375 24.1836C4.07491 25.8677 7.14069 26.7585 10.2699 26.75C20.8965 26.75 26.702 18.0957 26.702 10.5899C26.702 10.3438 26.6955 10.0977 26.6838 9.85743C27.8106 9.0559 28.7854 8.05984 29.5625 6.91603Z" fill="black"/>
</svg>
