<svg width="31" height="31" viewBox="0 0 31 31" fill="none" xmlns="http://www.w3.org/2000/svg">
<path d="M26.5256 2.375H4.61797C3.4209 2.375 2.375 3.23633 2.375 4.41934V26.3756C2.375 27.565 3.4209 28.625 4.61797 28.625H26.5191C27.7227 28.625 28.625 27.558 28.625 26.3756V4.41934C28.632 3.23633 27.7227 2.375 26.5256 2.375ZM10.5119 24.2557H6.75137V12.5633H10.5119V24.2557ZM8.76172 10.7855H8.73477C7.53125 10.7855 6.75195 9.88965 6.75195 8.76816C6.75195 7.62617 7.55176 6.75137 8.78223 6.75137C10.0127 6.75137 10.7656 7.61973 10.7926 8.76816C10.792 9.88965 10.0127 10.7855 8.76172 10.7855ZM24.2557 24.2557H20.4951V17.8625C20.4951 16.3309 19.9479 15.2844 18.5873 15.2844C17.5479 15.2844 16.9326 15.9875 16.659 16.6725C16.5564 16.9186 16.5289 17.2537 16.5289 17.5959V24.2557H12.7684V12.5633H16.5289V14.1904C17.0762 13.4111 17.9311 12.2896 19.9203 12.2896C22.3889 12.2896 24.2563 13.9168 24.2563 17.4248L24.2557 24.2557Z" fill="black"/>
</svg>
