<svg width="31" height="31" viewBox="0 0 31 31" fill="none" xmlns="http://www.w3.org/2000/svg">
<path d="M15.5 2.375C8.25195 2.375 2.375 8.4043 2.375 15.834C2.375 21.7813 6.13672 26.8203 11.3516 28.6016C11.4247 28.6175 11.4994 28.6253 11.5742 28.625C12.0605 28.625 12.248 28.2676 12.248 27.957C12.248 27.6348 12.2363 26.791 12.2305 25.666C11.7963 25.7678 11.3522 25.8209 10.9063 25.8242C8.38086 25.8242 7.80664 23.8613 7.80664 23.8613C7.20898 22.3086 6.34766 21.8926 6.34766 21.8926C5.20508 21.0898 6.3418 21.0664 6.42969 21.0664H6.43555C7.75391 21.1836 8.44531 22.4609 8.44531 22.4609C9.10156 23.6094 9.98047 23.9316 10.7656 23.9316C11.2848 23.9213 11.7959 23.8015 12.2656 23.5801C12.3828 22.7129 12.7227 22.1211 13.0977 21.7813C10.1855 21.4414 7.12109 20.2871 7.12109 15.1309C7.12109 13.6602 7.63086 12.459 8.46875 11.5215C8.33398 11.1816 7.88281 9.81055 8.59766 7.95898C8.69354 7.93604 8.79209 7.92619 8.89062 7.92969C9.36523 7.92969 10.4375 8.11133 12.207 9.3418C14.3572 8.74022 16.6311 8.74022 18.7812 9.3418C20.5508 8.11133 21.623 7.92969 22.0977 7.92969C22.1962 7.92619 22.2947 7.93604 22.3906 7.95898C23.1055 9.81055 22.6543 11.1816 22.5195 11.5215C23.3574 12.4648 23.8672 13.666 23.8672 15.1309C23.8672 20.2988 20.7969 21.4355 17.873 21.7695C18.3418 22.1855 18.7637 23.0059 18.7637 24.2598C18.7637 26.0586 18.7461 27.5117 18.7461 27.9512C18.7461 28.2676 18.9277 28.625 19.4141 28.625C19.4928 28.6253 19.5713 28.6175 19.6484 28.6016C24.8691 26.8203 28.625 21.7754 28.625 15.834C28.625 8.4043 22.748 2.375 15.5 2.375Z" fill="black"/>
</svg>
